<svg preserveAspectRatio="none" width="100%" height="100%" overflow="visible" style="display: block;" viewBox="0 0 32.004 16.1493" fill="none" xmlns="http://www.w3.org/2000/svg">
<g id="Group">
<path id="Vector" d="M31.236 1.3831H0.764C0.344 1.3831 0 1.07534 0 0.691552C0 0.311379 0.34 0 0.764 0H31.24C31.66 0 32.004 0.307759 32.004 0.691552C32 1.07172 31.66 1.3831 31.236 1.3831Z" fill="var(--fill-0, white)"/>
<path id="Vector_2" d="M31.236 8.76621H0.764C0.34 8.76621 0 8.45483 0 8.07466C0 7.69449 0.34 7.38311 0.764 7.38311H31.24C31.66 7.38311 32.004 7.69086 32.004 8.07466C32.004 8.45845 31.66 8.76621 31.236 8.76621Z" fill="var(--fill-0, white)"/>
<path id="Vector_3" d="M31.236 16.1493H0.764C0.344 16.1493 0 15.8416 0 15.4578C0 15.0776 0.34 14.7662 0.764 14.7662H31.24C31.66 14.7662 32.004 15.074 32.004 15.4578C32 15.8379 31.66 16.1493 31.236 16.1493Z" fill="var(--fill-0, white)"/>
</g>
</svg>
