<svg preserveAspectRatio="none" width="100%" height="100%" overflow="visible" style="display: block;" viewBox="0 0 283.222 12.8164" fill="none" xmlns="http://www.w3.org/2000/svg">
<path id="Subtract" d="M34.8896 0C35.5974 4.64256e-05 36.2993 0.101737 36.9951 0.305664C37.6911 0.497655 38.2909 0.768234 38.7949 1.11621L38.3447 2.17773C37.8049 1.81788 37.229 1.5537 36.6172 1.38574C36.0172 1.21775 35.4351 1.13379 34.8711 1.13379C34.1151 1.1338 33.491 1.23644 32.999 1.44043C32.5073 1.64434 32.1413 1.91982 31.9014 2.26758C31.6734 2.60356 31.5596 2.98796 31.5596 3.41992C31.5596 3.91192 31.6976 4.3084 31.9736 4.6084C32.2615 4.9081 32.6333 5.14166 33.0889 5.30957C33.5568 5.47756 34.0672 5.62777 34.6191 5.75977C35.1711 5.89175 35.7169 6.03641 36.2568 6.19238C36.8088 6.34838 37.3135 6.55171 37.7695 6.80371C38.2375 7.0437 38.6088 7.36842 38.8848 7.77637C39.1727 8.18434 39.3174 8.71799 39.3174 9.37793C39.3174 9.98984 39.1494 10.56 38.8135 11.0879C38.4776 11.6038 37.9614 12.0237 37.2656 12.3477C36.5816 12.6597 35.6991 12.8164 34.6191 12.8164C33.6831 12.8164 32.7829 12.6662 31.9189 12.3662C31.067 12.0542 30.4074 11.6577 29.9395 11.1777L30.4609 10.1523C30.9049 10.5843 31.4992 10.95 32.2432 11.25C32.9992 11.538 33.7911 11.6816 34.6191 11.6816C35.4111 11.6816 36.0529 11.5855 36.5449 11.3936C37.0489 11.1896 37.4156 10.92 37.6436 10.584C37.8835 10.248 38.0029 9.87569 38.0029 9.46777C38.0029 8.97599 37.8591 8.5802 37.5713 8.28027C37.2954 7.98037 36.9294 7.74611 36.4736 7.57812C36.0176 7.39813 35.5129 7.24235 34.9609 7.11035C34.409 6.97836 33.8566 6.84028 33.3047 6.69629C32.7529 6.54032 32.2432 6.33589 31.7754 6.08398C31.3194 5.83198 30.9472 5.50175 30.6592 5.09375C30.3833 4.67378 30.2451 4.12794 30.2451 3.45605C30.2451 2.83205 30.4074 2.26209 30.7314 1.74609C31.0674 1.21825 31.577 0.798293 32.2607 0.486328C32.9447 0.162328 33.8216 0 34.8896 0ZM47.7637 0C48.4715 2.75625e-05 49.1733 0.101753 49.8691 0.305664C50.565 0.497638 51.165 0.768279 51.6689 1.11621L51.2197 2.17773C50.6797 1.81773 50.1032 1.55374 49.4912 1.38574C48.8913 1.21779 48.309 1.13379 47.7451 1.13379C46.9892 1.13381 46.365 1.23645 45.873 1.44043C45.3814 1.64435 45.0153 1.91982 44.7754 2.26758C44.5474 2.60356 44.4336 2.98796 44.4336 3.41992C44.4336 3.91192 44.5717 4.3084 44.8477 4.6084C45.1356 4.90824 45.508 5.14163 45.9639 5.30957C46.4317 5.4775 46.9414 5.62781 47.4932 5.75977C48.0452 5.89177 48.5918 6.03638 49.1318 6.19238C49.6836 6.34836 50.1877 6.55179 50.6436 6.80371C51.1115 7.04371 51.4838 7.36837 51.7598 7.77637C52.0476 8.1843 52.1914 8.71819 52.1914 9.37793C52.1914 9.98988 52.0234 10.5599 51.6875 11.0879C51.3516 11.6038 50.8355 12.0237 50.1396 12.3477C49.4556 12.6597 48.5732 12.8164 47.4932 12.8164C46.5572 12.8164 45.6569 12.6662 44.793 12.3662C43.9411 12.0542 43.2814 11.6577 42.8135 11.1777L43.335 10.1523C43.7789 10.5843 44.3733 10.95 45.1172 11.25C45.8731 11.538 46.6652 11.6816 47.4932 11.6816C48.285 11.6816 48.927 11.5855 49.4189 11.3936C49.9229 11.1896 50.2896 10.92 50.5176 10.584C50.7575 10.248 50.877 9.87573 50.877 9.46777C50.8769 8.97594 50.7332 8.58021 50.4453 8.28027C50.1694 7.98033 49.8035 7.74612 49.3477 7.57812C48.8917 7.39813 48.387 7.24235 47.835 7.11035C47.2832 6.9784 46.7315 6.84023 46.1797 6.69629C45.6277 6.54029 45.1174 6.33598 44.6494 6.08398C44.1934 5.83198 43.8212 5.50175 43.5332 5.09375C43.2573 4.67379 43.1191 4.12789 43.1191 3.45605C43.1191 2.83206 43.2815 2.26209 43.6055 1.74609C43.9415 1.21809 44.4517 0.798328 45.1357 0.486328C45.8197 0.162381 46.6958 0 47.7637 0ZM159.155 0C160.103 1.70702e-05 160.979 0.162345 161.783 0.486328C162.587 0.798324 163.283 1.2424 163.871 1.81836C164.471 2.39421 164.933 3.07183 165.257 3.85156C165.593 4.63156 165.761 5.4842 165.761 6.4082C165.761 7.33212 165.593 8.18393 165.257 8.96387C164.933 9.74387 164.471 10.422 163.871 10.998C163.283 11.574 162.587 12.0237 161.783 12.3477C160.979 12.6596 160.103 12.8164 159.155 12.8164C158.207 12.8164 157.325 12.6597 156.509 12.3477C155.705 12.0237 155.003 11.5739 154.403 10.998C153.815 10.4101 153.354 9.73185 153.018 8.96387C152.694 8.18392 152.531 7.33213 152.531 6.4082C152.531 5.4842 152.694 4.63812 153.018 3.87012C153.354 3.09015 153.815 2.41192 154.403 1.83594C155.003 1.2481 155.705 0.798298 156.509 0.486328C157.313 0.162328 158.195 0 159.155 0ZM240.554 0C241.262 4.58762e-05 241.963 0.101737 242.659 0.305664C243.355 0.497654 243.955 0.768236 244.459 1.11621L244.009 2.17773C243.469 1.81788 242.893 1.5537 242.281 1.38574C241.681 1.21775 241.099 1.13379 240.535 1.13379C239.779 1.1338 239.155 1.23644 238.663 1.44043C238.171 1.64434 237.805 1.91982 237.565 2.26758C237.337 2.60356 237.224 2.98796 237.224 3.41992C237.224 3.91192 237.362 4.3084 237.638 4.6084C237.926 4.9081 238.297 5.14166 238.753 5.30957C239.221 5.47756 239.731 5.62777 240.283 5.75977C240.835 5.89175 241.381 6.03641 241.921 6.19238C242.473 6.34838 242.978 6.55171 243.434 6.80371C243.902 7.0437 244.273 7.36842 244.549 7.77637C244.837 8.18434 244.981 8.71799 244.981 9.37793C244.981 9.98984 244.813 10.56 244.478 11.0879C244.142 11.6038 243.625 12.0237 242.93 12.3477C242.246 12.6597 241.363 12.8164 240.283 12.8164C239.347 12.8164 238.447 12.6662 237.583 12.3662C236.731 12.0542 236.071 11.6577 235.604 11.1777L236.125 10.1523C236.569 10.5843 237.163 10.95 237.907 11.25C238.663 11.538 239.455 11.6816 240.283 11.6816C241.075 11.6816 241.717 11.5855 242.209 11.3936C242.713 11.1896 243.08 10.92 243.308 10.584C243.548 10.248 243.667 9.87569 243.667 9.46777C243.667 8.97599 243.523 8.5802 243.235 8.28027C242.959 7.98037 242.593 7.74611 242.138 7.57812C241.682 7.39813 241.177 7.24235 240.625 7.11035C240.073 6.97836 239.521 6.84028 238.969 6.69629C238.417 6.54032 237.907 6.33589 237.439 6.08398C236.983 5.83198 236.611 5.50175 236.323 5.09375C236.047 4.67378 235.909 4.12794 235.909 3.45605C235.909 2.83205 236.072 2.26209 236.396 1.74609C236.731 1.21825 237.241 0.798293 237.925 0.486328C238.609 0.162328 239.486 0 240.554 0ZM1.33203 5.72363H9.21582V0.108398H10.5303V12.708H9.21582V6.89355H1.33203V12.708H0V0.108398H1.33203V5.72363ZM27.2607 12.708H25.8564L24.3506 9.3418H17.3184L15.8125 12.708H14.4268L20.1865 0.108398H21.501L27.2607 12.708ZM58.2256 11.5557H65.2812V12.708H56.8936V0.108398H58.2256V11.5557ZM77.9336 1.25977H70.625V5.74219H77.1416V6.87598H70.625V11.5557H78.2031V12.708H69.293V0.108398H77.9336V1.25977ZM100.096 1.25977H92.7881V6.20996H99.3037V7.3623H92.7881V12.708H91.4561V0.108398H100.096V1.25977ZM109.362 0.108398C110.958 0.108398 112.212 0.491936 113.124 1.25977C114.048 2.01572 114.511 3.07187 114.511 4.42773C114.511 5.31573 114.3 6.08442 113.88 6.73242C113.472 7.36818 112.884 7.8601 112.116 8.20801C111.961 8.27598 111.799 8.33445 111.631 8.38867L114.708 12.708H113.25L110.378 8.6543C110.056 8.69146 109.718 8.71191 109.362 8.71191H105.979V12.708H104.646V0.108398H109.362ZM128.094 1.25977H120.786V5.74219H127.302V6.87598H120.786V11.5557H128.364V12.708H119.454V0.108398H128.094V1.25977ZM141.936 1.25977H134.627V5.74219H141.144V6.87598H134.627V11.5557H142.205V12.708H133.295V0.108398H141.936V1.25977ZM173.8 10.9648L177.558 0.108398H178.781L182.506 11.0156L186.197 0.108398H187.476L183.228 12.708H181.823L178.133 1.98047L174.426 12.708H173.04L168.792 0.108398H170.159L173.8 10.9648ZM200.934 10.3262V0.108398H202.248V12.708H201.149L193.05 2.49023V12.708H191.718V0.108398H192.815L200.934 10.3262ZM216.801 1.25977H209.492V5.74219H216.009V6.87598H209.492V11.5557H217.07V12.708H208.16V0.108398H216.801V1.25977ZM226.718 0.108398C228.314 0.108456 229.568 0.491865 230.479 1.25977C231.403 2.01572 231.865 3.07187 231.865 4.42773C231.865 5.31573 231.655 6.08442 231.235 6.73242C230.827 7.36821 230.239 7.86007 229.472 8.20801C229.316 8.27607 229.153 8.3344 228.985 8.38867L232.063 12.708H230.605L227.732 8.6543C227.411 8.69141 227.073 8.7119 226.718 8.71191H223.333V12.708H222.001V0.108398H226.718ZM251.016 5.72363H258.899V0.108398H260.214V12.708H258.899V6.89355H251.016V12.708H249.684V0.108398H251.016V5.72363ZM267.458 12.708H266.126V0.108398H267.458V12.708ZM278.073 0.108398C279.141 0.108398 280.06 0.281882 280.828 0.629883C281.596 0.965879 282.184 1.45854 282.592 2.10645C283.012 2.74231 283.222 3.51603 283.222 4.42773C283.222 5.31573 283.012 6.08442 282.592 6.73242C282.184 7.3682 281.596 7.86006 280.828 8.20801C280.06 8.55601 279.141 8.73047 278.073 8.73047H274.689V12.708H273.357V0.108398H278.073ZM159.155 1.18848C158.399 1.18848 157.697 1.31998 157.049 1.58398C156.401 1.83592 155.837 2.20187 155.357 2.68164C154.889 3.14961 154.517 3.70195 154.241 4.33789C153.977 4.96189 153.845 5.6522 153.845 6.4082C153.845 7.15198 153.977 7.8417 154.241 8.47754C154.517 9.11354 154.889 9.67234 155.357 10.1523C155.837 10.6201 156.401 10.9861 157.049 11.25C157.697 11.502 158.399 11.6279 159.155 11.6279C159.911 11.6279 160.607 11.502 161.243 11.25C161.891 10.986 162.449 10.6202 162.917 10.1523C163.397 9.67236 163.769 9.12008 164.033 8.49609C164.297 7.86015 164.429 7.16413 164.429 6.4082C164.429 5.6522 164.297 4.96189 164.033 4.33789C163.769 3.70192 163.397 3.14962 162.917 2.68164C162.449 2.20177 161.891 1.83594 161.243 1.58398C160.607 1.32 159.911 1.18849 159.155 1.18848ZM86.5264 8.3877H81.8105V7.27246H86.5264V8.3877ZM17.8018 8.26172H23.8672L20.834 1.48438L17.8018 8.26172ZM223.333 7.57812H226.682C227.941 7.57809 228.895 7.30182 229.543 6.75C230.203 6.198 230.533 5.42373 230.533 4.42773C230.533 3.41987 230.203 2.63984 229.543 2.08789C228.895 1.5361 227.941 1.2598 226.682 1.25977H223.333V7.57812ZM105.979 7.57812H109.326C110.586 7.57812 111.54 7.302 112.188 6.75C112.848 6.198 113.179 5.42369 113.179 4.42773C113.179 3.41988 112.848 2.63984 112.188 2.08789C111.54 1.53589 110.586 1.25977 109.326 1.25977H105.979V7.57812ZM274.689 7.55957H278.038C279.298 7.55951 280.251 7.28986 280.899 6.75C281.559 6.198 281.89 5.42373 281.89 4.42773C281.89 3.41987 281.559 2.63984 280.899 2.08789C280.251 1.53607 279.298 1.25983 278.038 1.25977H274.689V7.55957Z" fill="var(--fill-0, #CCCCCC)"/>
</svg>
